<?xml version="1.0" encoding="utf-8"?>
<!-- Generator: Adobe Illustrator 24.1.1, SVG Export Plug-In . SVG Version: 6.00 Build 0)  -->
<svg version="1.1" id="Layer_1" xmlns="http://www.w3.org/2000/svg" xmlns:xlink="http://www.w3.org/1999/xlink" x="0px" y="0px"
	 viewBox="0 0 145.1 64.9" style="enable-background:new 0 0 145.1 64.9;" xml:space="preserve">
<style type="text/css">
	.st0{fill:#FFFFFF;}
</style>
<g transform="translate(-521.34 -153.292)">
	<g transform="translate(521.34 153.292)">
		<g transform="translate(0 0)">
			<g transform="translate(88.759)">
				<path class="st0" d="M0.1,7.8C0,7.8,0,7.8,0.1,7.8C0,7.7,0,7.7,0,7.7c0.2-0.1,0.5-0.1,0.7-0.2C2.9,7,5.1,6.6,7.3,6.2
					c2.2-0.4,4.4-0.7,6.7-0.9c2.3-0.2,4.6-0.3,7-0.4c4.6-0.1,9.2,0.3,13.6,1.3c2.6,0.5,5.1,1.4,7.4,2.7c3.5,1.9,6.2,5.5,5.8,9.6
					c-0.3,2.2-1.2,4.3-2.6,6.1c-3.6,4.9-9,8.6-14,11.9c0,0-0.1,0-0.1,0c0,0,0-0.1,0-0.1c6.3-4.8,9.7-10.3,8.8-15.4
					C38.1,11.2,21,5.8,0.1,7.8z"/>
				<path class="st0" d="M31.3,2.4c4.3,0.2,8.7,0.6,12.7,2.4c3.3,1.4,6.2,4.1,6.9,7.8c0.4,2.5,0.1,5.1-0.8,7.5c0,0,0,0.1,0,0.1
					c0,0,0,0,0.1,0c0.1-0.2,0.3-0.3,0.4-0.5c2.3-2.6,4-5.5,5.2-8.7c0.6-1.7,0.7-3.5,0.4-5.2c-0.7-2.6-3.2-4-5.6-4.6
					c-1-0.3-2-0.5-3-0.6c-4.5-0.5-9.1-0.5-13.7,0.1c-2.6,0.3-5.2,0.6-7.8,1c-1.6,0.3-3.2,0.6-4.9,0.9c0,0-0.1,0,0,0.1c0,0,0,0,0.1,0
					C24.5,2.3,27.9,2.2,31.3,2.4z"/>
			</g>
			<g transform="translate(0 18.909)">
				<path class="st0" d="M28.3,13.7c1.8-4.5-0.3-9.5-4.8-11.4c-1-0.4-2.2-0.6-3.3-0.6H0v8h6v-2h14.2c1.5,0,2.7,1.2,2.7,2.7
					s-1.2,2.7-2.7,2.7H0v6h25.2c1.5,0,2.7,1.2,2.7,2.7c0,1.5-1.2,2.7-2.7,2.7l0,0H6v-2H0v8h25.2c4.8,0,8.7-3.9,8.7-8.7
					C33.9,18.3,31.7,15,28.3,13.7L28.3,13.7z"/>
				<rect x="76.5" y="1.7" class="st0" width="36.1" height="6"/>
				<rect x="91.5" y="11.2" class="st0" width="6" height="19.4"/>
				<path class="st0" d="M53.2,17.7L59,10l15.6,20.6h7.6L59,0L35.9,30.6h7.6l5.2-6.9h16.5l-4.6-6L53.2,17.7z"/>
			</g>
		</g>
		<g transform="translate(12.455 56.892)">
			<g transform="translate(0 0)">
				<path class="st0" d="M8,0v7.9H7v-5l-3,4l-3-4v5H0V0l4,5.2L8,0z"/>
				<path class="st0" d="M17.4,6.1l-3.7,0l-0.8,1.8h-1L15.5,0l3.7,7.8h-1L17.4,6.1z M14.1,5.2l2.8,0l-1.4-3.1L14.1,5.2z"/>
				<path class="st0" d="M24,7h3.7v0.9h-4.6V0.4h1V7z"/>
				<path class="st0" d="M37.2,6.1l-3.7,0l-0.8,1.8h-1L35.4,0l3.7,7.8h-1L37.2,6.1z M33.9,5.2l2.8,0l-1.4-3.1L33.9,5.2z"/>
				<path class="st0" d="M44,3.6l2.2-3.2h1.2l-3,4.2v3.3h-0.9V4.6l-3-4.2h1.2L44,3.6z"/>
				<path class="st0" d="M56.4,5.8c0,1.7-1.4,2.3-2.8,2.3c-0.9,0-1.8-0.2-2.5-0.8V6.1c0.7,0.7,1.6,1,2.6,1c1.2,0,2-0.6,2-1.2
					c0-2-4.7-0.5-4.7-3.6c0-1.4,1.4-2.1,2.6-2.1c0.8,0,1.6,0.2,2.3,0.7l0,1.2c-0.7-0.6-1.5-0.9-2.4-0.9c-0.5,0-1.7,0.2-1.7,1.1
					C51.7,4.4,56.4,2.9,56.4,5.8z"/>
				<path class="st0" d="M61.4,7.9h-1V0.4h1V7.9z"/>
				<path class="st0" d="M70.9,6.1l-3.7,0l-0.8,1.8h-1.1L69.1,0l3.7,7.8h-1L70.9,6.1z M67.6,5.2l2.8,0l-1.4-3.1L67.6,5.2z"/>
			</g>
		</g>
	</g>
</g>
</svg>
