<svg xmlns="http://www.w3.org/2000/svg" width="145.063" height="64.945" viewBox="0 0 145.063 64.945"><g transform="translate(-521.34 -153.292)"><g transform="translate(521.34 153.292)"><g transform="translate(0 0)"><g transform="translate(88.759)"><path d="M239.746,78.754a.059.059,0,0,1-.02-.116q.351-.088.7-.173c2.163-.525,4.343-.948,6.535-1.331,2.208-.385,4.44-.665,6.672-.877q3.468-.329,6.955-.375a57.975,57.975,0,0,1,13.627,1.278,27.323,27.323,0,0,1,7.389,2.68c3.453,1.937,6.207,5.5,5.849,9.627a12.4,12.4,0,0,1-2.581,6.075c-3.62,4.908-8.962,8.6-14.007,11.9a.058.058,0,0,1-.067-.1c6.328-4.814,9.716-10.255,8.789-15.377C277.806,82.132,260.7,76.771,239.746,78.754Z" transform="translate(-239.681 -70.942)" fill="#0e2b63"/><path d="M291.062,68.6c4.309.176,8.694.6,12.68,2.363,3.283,1.449,6.206,4.137,6.882,7.8a14.229,14.229,0,0,1-.823,7.5.059.059,0,0,0,.1.059q.2-.239.4-.482a27.124,27.124,0,0,0,5.22-8.727,9.5,9.5,0,0,0,.362-5.221c-.678-2.632-3.189-3.952-5.638-4.644a22.9,22.9,0,0,0-3-.622,58.022,58.022,0,0,0-13.653.051c-2.608.252-5.206.6-7.793,1.013-1.625.262-3.247.55-4.861.876a.059.059,0,0,0,.016.116C284.327,68.526,287.7,68.461,291.062,68.6Z" transform="translate(-259.807 -66.235)" fill="#0e2b63"/></g><g transform="translate(0 18.909)"><path d="M94.548,118.559a8.715,8.715,0,0,0-8.077-12H66.235v7.982h6.027v-1.954H86.471a2.692,2.692,0,0,1,0,5.384H66.235V124H91.411a2.691,2.691,0,1,1,0,5.383H72.262V127.43H66.235v7.982H91.411a8.718,8.718,0,0,0,3.137-16.852Z" transform="translate(-66.235 -104.834)" fill="#0e2b63"/><rect width="36.086" height="6.027" transform="translate(76.503 1.729)" fill="#0e2b63"/><rect width="6.027" height="19.386" transform="translate(91.532 11.191)" fill="#0e2b63"/><path d="M153.669,120.85l5.823-7.685,15.606,20.6h7.562l-23.168-30.578-23.168,30.578h7.562l5.216-6.885h16.478l-4.567-6.027Z" transform="translate(-100.457 -103.185)" fill="#0e2b63"/></g></g><g transform="translate(12.455 56.892)"><g transform="translate(0 0)"><path d="M98.534,177.408v7.886h-.965V180.26l-3.02,3.985-3-3.985v5.034h-.975v-7.886l3.975,5.2Z" transform="translate(-90.574 -177.408)" fill="#0e2b63"/><path d="M119.2,183.593l-3.67-.01-.829,1.751h-1.049l3.713-7.844,3.7,7.844h-1.038Zm-3.251-.923,2.831-.011-1.415-3.072Z" transform="translate(-101.844 -177.448)" fill="#0e2b63"/><path d="M136.628,184.771h3.66v.933h-4.614v-7.456h.954Z" transform="translate(-112.595 -177.818)" fill="#0e2b63"/><path d="M157.971,183.593l-3.671-.01-.829,1.751h-1.049l3.712-7.844,3.7,7.844H158.8Zm-3.251-.923,2.831-.011-1.416-3.072Z" transform="translate(-120.772 -177.448)" fill="#0e2b63"/><path d="M173.359,181.4l2.213-3.156h1.237l-2.968,4.195V185.7H172.9v-3.261l-2.968-4.195h1.227Z" transform="translate(-129.32 -177.818)" fill="#0e2b63"/><path d="M195.414,183.415c0,1.668-1.405,2.286-2.81,2.286a4.119,4.119,0,0,1-2.548-.776V183.72a3.829,3.829,0,0,0,2.559,1.038c1.185,0,1.982-.64,1.982-1.248,0-2.035-4.719-.483-4.719-3.556,0-1.447,1.374-2.055,2.632-2.055a3.659,3.659,0,0,1,2.307.661l-.031,1.164a3.494,3.494,0,0,0-2.391-.86c-.524,0-1.667.231-1.667,1.1C190.727,182.084,195.414,180.563,195.414,183.415Z" transform="translate(-139.06 -177.648)" fill="#0e2b63"/><path d="M209.6,185.7h-.965v-7.456h.965Z" transform="translate(-148.218 -177.818)" fill="#0e2b63"/><path d="M223.8,183.593l-3.671-.01-.828,1.751H218.25l3.713-7.844,3.7,7.844h-1.038Zm-3.251-.923,2.832-.011-1.416-3.072Z" transform="translate(-152.913 -177.448)" fill="#0e2b63"/></g></g></g></g></svg>