<?xml version="1.0" standalone="no"?>
<!DOCTYPE svg PUBLIC "-//W3C//DTD SVG 20010904//EN"
 "http://www.w3.org/TR/2001/REC-SVG-20010904/DTD/svg10.dtd">
<svg version="1.0" xmlns="http://www.w3.org/2000/svg"
 width="250.000000pt" height="250.000000pt" viewBox="0 0 250.000000 250.000000"
 preserveAspectRatio="xMidYMid meet">
<metadata>
Created by potrace 1.11, written by Peter Selinger 2001-2013
</metadata>
<g transform="translate(0.000000,250.000000) scale(0.100000,-0.100000)"
fill="#000000" stroke="none">
<path d="M860 2170 c-4 -8 -8 -18 -8 -23 0 -4 -3 -26 -7 -50 -4 -23 -9 -55
-11 -72 -2 -16 -7 -41 -9 -55 -3 -14 -8 -36 -10 -50 -3 -14 -8 -43 -11 -65 -2
-22 -9 -44 -15 -50 -5 -5 -71 -9 -147 -10 l-137 0 -1 -172 -2 -173 118 0 118
0 -8 -37 c-5 -21 -11 -56 -15 -78 -16 -107 -46 -269 -50 -273 -3 -3 -61 -5
-130 -5 l-125 1 0 -24 c-1 -31 -1 -256 0 -292 l0 -28 98 1 97 0 -2 -30 c-1
-16 -6 -55 -12 -85 -11 -54 -17 -84 -26 -145 -2 -16 -7 -46 -11 -65 -16 -81
-29 -75 158 -76 92 -1 171 2 176 5 5 3 24 92 42 196 18 105 34 192 37 195 6 6
362 7 373 0 5 -3 5 -23 -1 -48 -5 -23 -12 -59 -15 -80 -3 -20 -14 -86 -25
-146 -10 -60 -19 -112 -19 -116 0 -3 79 -7 175 -7 193 -1 176 -7 191 72 4 22
8 49 9 60 2 11 5 34 9 50 3 17 13 70 22 120 8 49 18 92 21 95 2 3 68 5 146 5
l141 0 0 170 0 170 -85 2 c-166 3 -151 0 -145 31 8 33 12 55 21 112 4 25 9 52
10 61 6 32 17 95 23 139 l7 45 133 3 133 3 -1 173 -2 174 -99 -2 c-64 -1 -99
3 -99 10 0 9 6 46 25 149 3 17 8 49 11 71 2 23 7 53 10 65 3 13 8 40 11 59 l5
36 -173 -1 c-162 0 -173 -1 -180 -20 -8 -18 -59 -307 -62 -347 -1 -10 -4 -18
-7 -19 -27 -4 -364 -3 -372 2 -6 4 -7 19 -4 35 4 16 9 41 11 57 10 58 25 143
30 172 2 17 8 50 11 75 l6 45 -172 0 c-143 0 -173 -2 -180 -15z m610 -752 c-5
-18 -11 -51 -15 -73 -5 -39 -8 -56 -20 -115 -2 -14 -7 -43 -10 -65 -3 -22 -9
-55 -13 -74 l-8 -34 -167 0 c-216 2 -219 2 -214 11 3 4 8 27 11 52 3 25 8 56
11 70 2 14 7 36 9 50 3 14 7 41 10 60 3 19 10 59 16 89 5 29 10 55 10 57 0 2
87 4 194 4 l194 0 -8 -32z"/>
</g>
</svg>
